# xmcd
# 
# Track frame offsets:
#     150
#     18815
#     39132
#     56334
#     77102
#     95448
#     120852
#     142727
#     165521
#     183814
#     208888
#     230286
#     248547
#     273592
# 
# Disc length: 4010
# 
# Revision: 7
# Processed by: cddbd v1.5.2PL0 Copyright (c) Steve Scherf et al.
# Submitted via: fre:ac v1.0.17
# 
DISCID=9e0fa80e
DTITLE=Kenny Chesney - Live
DYEAR=2006
DGENRE=Country
TTITLE0=Live Those Songs (Live)
TTITLE1=Young (Live)
TTITLE2=Never Gonna Feel Like That Again (Live)
TTITLE3=Beer In Mexico (Live)
TTITLE4=Keg In The Closet (Live)
TTITLE5=What I Need To Do (Live)
TTITLE6=I Go Back (Live)
TTITLE7=When The Sun Goes Down (Live with Uncle Kracker)
TTITLE8=On The Coast Of Somewhere Beautiful (Live)
TTITLE9=Anything But Mine (Live)
TTITLE10=Back Where I Come From (Live)
TTITLE11=Don't Happen Twice (Live)
TTITLE12=How Forever Feels (Live)
TTITLE13=She Thinks My Tractor's Sexy (Live)
EXTD=YEAR: 2006
EXTT0=
EXTT1=
EXTT2=
EXTT3=
EXTT4=
EXTT5=
EXTT6=
EXTT7=
EXTT8=
EXTT9=
EXTT10=
EXTT11=
EXTT12=
EXTT13=
PLAYORDER=
